<?xml version="1.0" encoding="UTF-8" standalone="no"?>
<svg
   xmlns:dc="http://purl.org/dc/elements/1.1/"
   xmlns:cc="http://creativecommons.org/ns#"
   xmlns:rdf="http://www.w3.org/1999/02/22-rdf-syntax-ns#"
   xmlns:svg="http://www.w3.org/2000/svg"
   xmlns="http://www.w3.org/2000/svg"
   xmlns:sodipodi="http://sodipodi.sourceforge.net/DTD/sodipodi-0.dtd"
   xmlns:inkscape="http://www.inkscape.org/namespaces/inkscape"
   width="453.5433"
   height="340.15747"
   id="svg2"
   sodipodi:version="0.32"
   inkscape:version="1.0.2 (e86c870, 2021-01-15)"
   sodipodi:docname="draft-1.svg"
   version="1.0"
   viewBox="0 0 453.5433 340.15747">
  <defs
     id="defs4" />
  <sodipodi:namedview
     id="base"
     pagecolor="#ffffff"
     bordercolor="#666666"
     borderopacity="1.0"
     inkscape:pageopacity="0.0"
     inkscape:pageshadow="2"
     inkscape:zoom="1.540463"
     inkscape:cx="255.157"
     inkscape:cy="144.11252"
     inkscape:document-units="mm"
     inkscape:current-layer="g130"
     inkscape:window-width="1366"
     inkscape:window-height="707"
     inkscape:window-x="0"
     inkscape:window-y="0"
     width="12.8cm"
     height="9.6cm"
     units="cm"
     showgrid="true"
     grid_units="mm"
     inkscape:object-paths="false"
     inkscape:grid-points="true"
     inkscape:grid-bbox="true"
     inkscape:guide-points="true"
     showguides="true"
     inkscape:guide-bbox="true"
     inkscape:document-rotation="0"
     inkscape:window-maximized="1">
    <sodipodi:guide
       orientation="vertical"
       position="56.476527"
       id="guide3573" />
    <sodipodi:guide
       orientation="horizontal"
       position="11.035643"
       id="guide3579" />
    <sodipodi:guide
       orientation="horizontal"
       position="24.018753"
       id="guide3886" />
    <sodipodi:guide
       orientation="horizontal"
       position="285.62841"
       id="guide3988" />
    <sodipodi:guide
       orientation="horizontal"
       position="303.15561"
       id="guide4081" />
    <inkscape:grid
       id="GridFromPre046Settings"
       type="xygrid"
       originx="0"
       originy="0"
       spacingx="7.5590551"
       spacingy="7.5590551"
       color="#3f3fff"
       empcolor="#3f3fff"
       opacity="0.15"
       empopacity="0.38"
       empspacing="5" />
  </sodipodi:namedview>
  <metadata
     id="metadata7">
    <rdf:RDF>
      <cc:Work
         rdf:about="">
        <dc:format>image/svg+xml</dc:format>
        <dc:type
           rdf:resource="http://purl.org/dc/dcmitype/StillImage" />
        <dc:title></dc:title>
      </cc:Work>
    </rdf:RDF>
  </metadata>
  <g
     inkscape:label="Layer 1"
     inkscape:groupmode="layer"
     id="layer1">
    <g
       id="g130"
       transform="matrix(0.31900571,0,0,0.28499803,78.503485,49.283955)">
      <g
         transform="matrix(0.21942329,0,0,-0.22897193,-210.13528,1367.265)"
         fill="#000000"
         stroke="none"
         id="g186">
        <path
           d="m 3748,5760 c -16,-17 -28,-42 -28,-55 0,-16 -6,-25 -15,-25 -17,0 -57,-20 -66,-34 -4,-5 -24,-12 -45,-15 -36,-6 -55,-33 -33,-47 13,-7 -1,-56 -20,-71 -14,-12 -14,-14 3,-28 16,-12 18,-19 8,-40 -6,-14 -7,-25 -2,-25 5,0 11,-8 14,-18 4,-10 21,-33 38,-51 26,-27 29,-34 17,-42 -8,-5 -24,-7 -36,-4 -12,3 -25,0 -29,-6 -4,-8 -9,-7 -15,2 -6,10 -9,11 -9,2 0,-19 -21,-16 -36,5 -13,16 -14,16 -20,-5 -6,-21 -34,-41 -34,-24 0,19 -32,20 -48,1 -22,-25 -75,-39 -66,-17 4,12 1,14 -17,10 -15,-4 -20,-3 -15,5 10,17 -10,15 -26,-3 -33,-37 -38,-45 -28,-45 8,0 8,-6 0,-20 -12,-22 -36,-27 -44,-7 -7,17 -38,-23 -31,-41 4,-11 -1,-13 -21,-8 -18,5 -24,3 -19,-5 7,-10 -10,-28 -26,-29 -4,0 -12,13 -19,29 -17,43 -45,64 -87,65 -21,1 -45,6 -55,10 -12,5 -18,1 -23,-15 -5,-14 -3,-25 3,-27 6,-2 4,-14 -5,-33 -12,-25 -13,-35 -3,-60 7,-16 22,-36 33,-44 17,-12 18,-17 7,-30 -7,-8 -21,-15 -32,-15 -15,0 -18,-5 -13,-20 6,-17 3,-20 -17,-16 -13,2 -32,7 -43,11 -19,6 -19,6 -1,-5 14,-10 15,-14 5,-20 -10,-7 -10,-12 2,-26 12,-16 12,-17 -3,-12 -11,5 -18,0 -21,-13 -6,-21 -37,-26 -37,-6 0,16 -29,19 -47,5 -7,-5 -17,-7 -22,-4 -6,4 -15,-3 -21,-14 -7,-13 -7,-20 0,-20 5,0 10,-9 10,-20 0,-11 5,-29 12,-40 10,-15 9,-22 -3,-37 -9,-10 -19,-25 -22,-34 -3,-10 -22,-19 -47,-23 -40,-6 -42,-8 -35,-34 4,-15 11,-29 16,-33 13,-8 -13,-57 -28,-52 -6,2 -17,-6 -24,-18 -9,-19 -9,-25 5,-35 15,-10 14,-14 -14,-37 -16,-14 -26,-29 -20,-32 15,-10 12,-35 -5,-35 -17,0 -20,-16 -5,-25 7,-4 7,-13 0,-26 -6,-11 -8,-24 -5,-29 3,-5 -3,-13 -12,-19 -12,-7 -13,-10 -4,-11 10,0 11,-3 2,-13 -6,-8 -9,-16 -6,-19 8,-8 -15,-108 -25,-108 -5,0 -11,9 -15,20 -3,11 -21,41 -38,67 -18,27 -38,60 -46,75 -7,14 -22,29 -32,31 -11,3 -19,12 -19,20 0,8 -13,17 -31,21 -29,6 -31,8 -25,39 4,20 3,27 -3,18 -5,-7 -13,-11 -19,-7 -6,3 -13,0 -16,-6 -5,-10 -7,-10 -12,0 -3,6 -12,12 -20,12 -8,0 -20,11 -26,25 -11,25 -43,34 -50,15 -5,-15 -88,-1 -88,15 0,6 -8,19 -18,28 -23,21 -61,11 -68,-18 -7,-27 -49,-39 -69,-19 -12,12 -15,11 -19,-4 -6,-18 -69,-45 -80,-34 -3,3 -6,13 -6,23 0,19 -25,33 -52,30 -10,-1 -18,3 -18,8 0,23 -29,9 -44,-21 -21,-42 -20,-63 5,-87 22,-20 19,-41 -7,-41 -8,0 -14,-5 -14,-11 0,-6 -7,-9 -15,-5 -10,3 -15,-1 -15,-12 -1,-27 -25,-53 -37,-41 -17,17 -35,0 -29,-27 5,-17 0,-31 -14,-46 -11,-12 -20,-32 -20,-44 0,-12 -4,-24 -9,-26 -5,-1 -11,-23 -14,-48 -3,-25 -6,-46 -6,-47 -2,-10 -27,1 -55,22 -35,27 -65,31 -96,15 -13,-7 -21,-7 -25,0 -10,16 -25,11 -25,-8 0,-11 -9,-29 -20,-42 -11,-13 -20,-27 -20,-32 0,-4 -11,-8 -25,-8 -17,0 -23,-4 -19,-14 4,-11 -4,-16 -28,-19 l -33,-4 34,-1 c 23,-1 32,-6 28,-15 -3,-8 4,-14 16,-15 12,0 23,-5 25,-11 2,-5 12,-19 23,-32 10,-12 19,-28 19,-35 0,-8 10,-14 23,-13 12,0 37,-2 56,-4 21,-3 47,3 72,17 34,18 41,19 49,6 5,-8 10,-30 10,-47 0,-18 5,-33 10,-33 6,0 10,-9 10,-20 0,-12 9,-30 19,-42 14,-15 18,-29 14,-49 -5,-28 2,-35 31,-30 15,3 36,-21 36,-40 0,-12 5,-16 15,-13 8,4 15,1 15,-5 0,-6 7,-11 15,-11 8,0 15,-6 15,-14 0,-7 -7,-19 -15,-26 -19,-16 -19,-38 0,-84 15,-35 18,-37 48,-31 36,8 67,32 67,52 0,19 27,28 45,13 8,-6 18,-9 24,-6 5,4 13,-3 16,-14 5,-16 10,-18 20,-10 14,12 65,-3 65,-20 0,-5 11,-17 25,-26 24,-16 27,-16 45,1 11,10 20,24 20,30 0,17 76,28 100,15 16,-8 22,-6 35,14 15,23 47,40 72,37 7,-1 20,10 29,24 9,14 24,25 34,25 10,0 22,9 25,20 3,11 12,20 19,20 7,0 19,12 27,28 7,15 28,48 46,75 17,26 35,56 38,67 16,50 36,7 39,-80 0,-31 6,-52 14,-55 7,-3 10,-10 7,-15 -4,-6 -1,-18 7,-27 10,-13 10,-17 1,-20 -19,-7 -16,-23 3,-23 12,0 15,-7 12,-24 -3,-16 3,-35 17,-52 20,-25 21,-30 8,-40 -12,-8 -13,-15 -4,-32 6,-12 17,-19 24,-17 18,7 41,-46 24,-57 -6,-4 -8,-8 -3,-8 5,0 2,-7 -5,-16 -11,-14 -10,-18 6,-30 10,-8 29,-14 42,-14 13,0 26,-8 30,-17 3,-10 13,-26 22,-36 12,-15 13,-22 3,-37 -7,-11 -12,-29 -12,-40 0,-11 -5,-20 -10,-20 -7,0 -7,-6 0,-20 6,-11 16,-17 25,-14 9,4 21,1 29,-5 11,-9 18,-8 30,5 19,18 46,12 46,-10 0,-10 6,-13 18,-9 14,5 15,3 5,-8 -15,-16 -17,-33 -3,-24 6,3 10,2 10,-4 0,-5 -6,-11 -12,-14 -7,-2 -10,-8 -6,-12 4,-4 14,-2 23,5 17,14 50,6 40,-10 -4,-6 7,-15 24,-21 33,-12 41,-33 17,-42 -25,-10 -49,-67 -38,-91 5,-11 7,-32 6,-46 -5,-38 9,-55 34,-41 11,6 37,11 57,11 31,0 40,6 67,44 29,42 58,52 58,20 0,-8 6,-11 17,-7 12,5 15,2 10,-10 -3,-9 -2,-17 4,-17 6,0 8,-4 5,-9 -3,-5 3,-11 14,-14 10,-3 20,-1 22,5 6,16 40,-4 35,-21 -2,-9 1,-22 7,-28 6,-7 17,-19 24,-28 7,-8 18,-15 25,-15 8,0 8,3 -1,9 -10,6 -6,11 17,19 36,13 91,-2 91,-24 0,-8 5,-14 10,-14 6,0 10,4 10,9 0,4 12,8 28,7 16,-1 26,-6 24,-13 -1,-7 5,-13 13,-13 8,0 15,5 15,10 0,9 37,8 60,0 3,-1 17,-1 32,0 40,2 43,-18 9,-51 -28,-27 -36,-40 -32,-61 0,-5 -6,-8 -14,-8 -13,0 -14,-4 -5,-21 9,-17 8,-25 -7,-41 -16,-18 -16,-21 -2,-31 21,-16 33,-55 22,-70 -18,-23 -9,-42 20,-42 15,-1 35,-8 45,-16 9,-8 34,-22 55,-32 24,-12 37,-25 37,-37 0,-11 14,-34 32,-50 l 32,-31 22,28 c 13,15 23,40 24,54 0,24 26,59 44,59 5,0 17,11 27,24 11,14 29,26 42,28 16,2 21,9 19,23 -2,11 -3,34 -2,50 4,67 -2,108 -20,129 -7,9 -9,16 -4,16 4,0 -8,14 -27,30 -28,26 -31,33 -19,41 8,5 23,7 32,5 10,-2 20,-1 23,3 2,5 18,8 35,9 16,0 46,6 65,13 27,10 38,10 47,1 7,-7 19,-12 27,-12 8,0 12,3 8,6 -8,8 25,44 35,38 4,-3 8,0 8,5 0,17 30,13 36,-4 4,-8 17,-15 29,-15 13,0 27,-5 30,-10 3,-5 11,-10 16,-10 6,0 8,4 4,9 -8,15 12,93 27,103 7,5 27,7 44,6 27,-3 30,-1 26,21 -3,15 -1,22 5,18 6,-4 21,7 34,23 13,16 26,30 29,30 3,0 13,-15 23,-32 10,-18 31,-41 47,-50 26,-15 34,-15 62,-4 17,8 48,11 69,9 l 38,-6 -10,34 c -5,19 -10,50 -11,69 -1,35 -32,74 -69,85 -23,8 -25,33 -4,41 8,4 15,11 15,18 0,16 56,76 71,76 6,0 9,8 6,20 -3,11 1,27 10,35 8,8 12,18 9,23 -2,4 -1,14 4,22 7,12 15,13 38,4 25,-10 32,-8 61,18 l 32,29 -21,33 c -11,19 -29,36 -41,39 -17,5 -19,11 -14,39 4,18 7,47 6,65 -1,22 4,33 17,37 9,3 23,16 31,27 11,19 11,23 0,30 -35,19 -47,37 -53,72 -4,23 -3,37 4,37 18,0 11,29 -10,40 -14,8 -20,21 -20,45 0,19 -5,35 -10,35 -6,0 -15,10 -20,23 -15,34 -33,60 -55,78 -11,9 -37,32 -58,51 l -39,34 60,49 c 33,28 70,69 82,92 11,24 25,45 31,48 5,4 9,19 9,35 0,19 8,34 22,45 20,13 21,18 10,35 -8,14 -9,26 -3,38 9,17 11,24 11,40 0,5 11,15 25,22 31,17 31,21 -2,55 -16,15 -29,39 -30,54 -1,14 -5,41 -9,59 -5,28 -3,34 14,39 12,3 30,21 42,40 17,30 18,36 6,49 -8,8 -19,14 -24,14 -6,0 -13,7 -16,15 -5,14 -9,14 -35,1 -26,-14 -30,-14 -45,3 -14,15 -14,20 -4,24 10,4 8,9 -5,17 -13,9 -17,19 -13,36 5,19 1,27 -19,36 -13,6 -27,19 -30,30 -4,10 -11,18 -16,18 -5,0 -9,5 -9,11 0,7 -8,18 -17,25 -19,15 -21,13 54,72 15,12 22,28 23,52 0,19 4,50 9,67 l 9,32 -55,-1 c -38,-1 -57,3 -63,13 -8,11 -13,12 -30,2 -11,-7 -25,-13 -32,-13 -13,0 -38,-44 -38,-67 0,-7 -7,-13 -15,-13 -8,0 -15,5 -15,10 0,6 -7,10 -15,10 -8,0 -14,5 -12,12 1,7 -5,12 -13,13 -8,0 -16,9 -19,20 -4,26 -21,36 -42,25 -22,-12 -54,22 -46,50 3,11 1,23 -5,26 -5,3 -8,15 -5,25 5,20 -7,26 -18,9 -3,-5 -17,-10 -31,-10 -15,0 -24,-6 -24,-15 0,-34 -69,-4 -82,36 -4,11 -10,11 -36,0 -24,-10 -35,-11 -46,-2 -7,6 -33,13 -57,15 -24,2 -46,5 -49,6 -3,1 -12,2 -20,1 -8,0 -22,4 -30,9 -13,9 -12,13 8,27 29,20 28,44 -3,73 -19,18 -38,23 -97,27 -40,3 -79,6 -87,9 -22,7 4,30 85,75 41,22 79,49 84,59 15,27 12,70 -3,70 -20,0 -47,33 -47,59 0,20 -37,81 -49,81 -3,0 -18,-14 -33,-30 z M 2000,4378 c 25,-6 81,-16 125,-22 79,-11 80,-12 98,-49 10,-20 39,-53 63,-73 44,-36 44,-36 44,-103 0,-50 6,-80 26,-121 23,-50 24,-59 15,-117 -7,-47 -18,-74 -41,-103 -18,-22 -37,-40 -43,-40 -16,0 -57,-41 -57,-57 0,-16 -58,-43 -93,-43 -13,0 -33,-9 -45,-20 -26,-25 -116,-28 -148,-5 -29,20 -81,27 -104,15 -17,-9 -23,-4 -45,41 -16,30 -38,57 -57,67 -68,38 -76,54 -125,250 -3,13 5,42 21,75 14,28 33,85 41,125 16,77 43,139 71,163 14,12 78,21 184,27 14,1 45,-4 70,-10 z m 507,-480 c -3,-7 -5,-2 -5,12 0,14 2,19 5,13 2,-7 2,-19 0,-25 z m 2217,-603 c 3,-8 1,-15 -4,-15 -6,0 -10,7 -10,15 0,8 2,15 4,15 2,0 6,-7 10,-15 z"
           id="path182" />
        <path
           d="m 2890,5070 c 0,-5 5,-10 11,-10 5,0 7,5 4,10 -3,6 -8,10 -11,10 -2,0 -4,-4 -4,-10 z"
           id="path184" />
      </g>
    </g>
  </g>
</svg>
